<svg xmlns="http://www.w3.org/2000/svg" width="16" height="19" viewBox="0 0 16 19">
  <metadata><?xpacket begin="﻿" id="W5M0MpCehiHzreSzNTczkc9d"?>
<x:xmpmeta xmlns:x="adobe:ns:meta/" x:xmptk="Adobe XMP Core 5.6-c142 79.160924, 2017/07/13-01:06:39        ">
   <rdf:RDF xmlns:rdf="http://www.w3.org/1999/02/22-rdf-syntax-ns#">
      <rdf:Description rdf:about=""/>
   </rdf:RDF>
</x:xmpmeta>
                                                                                                    
                                                                                                    
                                                                                                    
                                                                                                    
                                                                                                    
                                                                                                    
                                                                                                    
                                                                                                    
                                                                                                    
                                                                                                    
                                                                                                    
                                                                                                    
                                                                                                    
                                                                                                    
                                                                                                    
                                                                                                    
                                                                                                    
                                                                                                    
                                                                                                    
                                                                                                    
                           
<?xpacket end="w"?></metadata>
<defs>
    <style>
      .cls-1 {
        fill: #fff;
        fill-rule: evenodd;
      }
    </style>
  </defs>
  <path id="downloads_icon" data-name="downloads icon" class="cls-1" d="M809.148,2153.8a0.9,0.9,0,0,0,.26.63l2.963,2.97a0.89,0.89,0,0,0,1.257,0l2.963-2.97a0.89,0.89,0,0,0-.628-1.52,0.887,0.887,0,0,0-.628.26l-1.446,1.45v-9.73a0.889,0.889,0,1,0-1.778,0v9.73l-1.446-1.45A0.889,0.889,0,0,0,809.148,2153.8Zm10.667-5.64h-3.259a0.89,0.89,0,0,0,0,1.78h2.666v11.28H806.778v-11.28h2.667a0.89,0.89,0,0,0,0-1.78h-3.26a1.185,1.185,0,0,0-1.185,1.18v12.47a1.187,1.187,0,0,0,1.185,1.19h13.63a1.186,1.186,0,0,0,1.185-1.19v-12.47A1.184,1.184,0,0,0,819.815,2148.16Z" transform="translate(-805 -2144)"/>
</svg>
